<mxfile host="app.diagrams.net" modified="2021-08-27T07:01:49.685Z" agent="5.0 (Windows NT 10.0; Win64; x64) AppleWebKit/537.36 (KHTML, like Gecko) Chrome/92.0.4515.159 Safari/537.36" etag="QKpVpOlcQMv0WzXriyUI" version="15.0.2" type="github">
  <diagram name="Page-1" id="929967ad-93f9-6ef4-fab6-5d389245f69c">
    <mxGraphModel dx="1422" dy="705" grid="1" gridSize="10" guides="1" tooltips="1" connect="1" arrows="1" fold="1" page="1" pageScale="1.5" pageWidth="1169" pageHeight="826" background="none" math="0" shadow="0">
      <root>
        <mxCell id="0" style=";html=1;" />
        <mxCell id="1" style=";html=1;" parent="0" />
        <mxCell id="1672d66443f91eb5-1" value="&lt;p style=&quot;margin: 0px ; margin-top: 4px ; margin-left: 10px ; text-align: left&quot;&gt;&lt;b&gt;Спецификация структуры моделей в CML-Bench&lt;/b&gt;&lt;/p&gt;" style="html=1;strokeWidth=1;shape=mxgraph.sysml.package;html=1;overflow=fill;whiteSpace=wrap;fillColor=none;gradientColor=none;fontSize=12;align=center;labelX=327.64;" parent="1" vertex="1">
          <mxGeometry x="320" y="360" width="1360" height="400" as="geometry" />
        </mxCell>
        <mxCell id="Pj3gwDrNvIVw6kRWUvLM-7" style="edgeStyle=orthogonalEdgeStyle;rounded=0;orthogonalLoop=1;jettySize=auto;html=1;exitX=1;exitY=0.5;exitDx=0;exitDy=0;entryX=0;entryY=0.5;entryDx=0;entryDy=0;" edge="1" parent="1" source="Pj3gwDrNvIVw6kRWUvLM-1" target="Pj3gwDrNvIVw6kRWUvLM-2">
          <mxGeometry relative="1" as="geometry" />
        </mxCell>
        <mxCell id="Pj3gwDrNvIVw6kRWUvLM-8" style="edgeStyle=orthogonalEdgeStyle;rounded=0;orthogonalLoop=1;jettySize=auto;html=1;exitX=1;exitY=0.5;exitDx=0;exitDy=0;entryX=0;entryY=0.5;entryDx=0;entryDy=0;" edge="1" parent="1" source="Pj3gwDrNvIVw6kRWUvLM-1" target="Pj3gwDrNvIVw6kRWUvLM-3">
          <mxGeometry relative="1" as="geometry" />
        </mxCell>
        <mxCell id="Pj3gwDrNvIVw6kRWUvLM-9" style="edgeStyle=orthogonalEdgeStyle;rounded=0;orthogonalLoop=1;jettySize=auto;html=1;exitX=1;exitY=0.5;exitDx=0;exitDy=0;entryX=0;entryY=0.5;entryDx=0;entryDy=0;" edge="1" parent="1" source="Pj3gwDrNvIVw6kRWUvLM-1" target="Pj3gwDrNvIVw6kRWUvLM-4">
          <mxGeometry relative="1" as="geometry" />
        </mxCell>
        <mxCell id="Pj3gwDrNvIVw6kRWUvLM-1" value="Редакция 1" style="html=1;" vertex="1" parent="1">
          <mxGeometry x="360" y="400" width="120" height="40" as="geometry" />
        </mxCell>
        <mxCell id="Pj3gwDrNvIVw6kRWUvLM-2" value="Мат. модель" style="html=1;" vertex="1" parent="1">
          <mxGeometry x="520" y="480" width="120" height="40" as="geometry" />
        </mxCell>
        <mxCell id="Pj3gwDrNvIVw6kRWUvLM-10" style="edgeStyle=orthogonalEdgeStyle;rounded=0;orthogonalLoop=1;jettySize=auto;html=1;exitX=1;exitY=0.5;exitDx=0;exitDy=0;entryX=0;entryY=0.5;entryDx=0;entryDy=0;" edge="1" parent="1" source="Pj3gwDrNvIVw6kRWUvLM-3" target="Pj3gwDrNvIVw6kRWUvLM-5">
          <mxGeometry relative="1" as="geometry" />
        </mxCell>
        <mxCell id="Pj3gwDrNvIVw6kRWUvLM-11" style="edgeStyle=orthogonalEdgeStyle;rounded=0;orthogonalLoop=1;jettySize=auto;html=1;exitX=1;exitY=0.5;exitDx=0;exitDy=0;entryX=0;entryY=0.5;entryDx=0;entryDy=0;" edge="1" parent="1" source="Pj3gwDrNvIVw6kRWUvLM-3" target="Pj3gwDrNvIVw6kRWUvLM-6">
          <mxGeometry relative="1" as="geometry" />
        </mxCell>
        <mxCell id="Pj3gwDrNvIVw6kRWUvLM-3" value="Результаты" style="html=1;" vertex="1" parent="1">
          <mxGeometry x="520" y="560" width="120" height="40" as="geometry" />
        </mxCell>
        <mxCell id="Pj3gwDrNvIVw6kRWUvLM-4" value="Верификация" style="html=1;" vertex="1" parent="1">
          <mxGeometry x="520" y="640" width="120" height="40" as="geometry" />
        </mxCell>
        <mxCell id="Pj3gwDrNvIVw6kRWUvLM-5" value="Режим 1" style="html=1;" vertex="1" parent="1">
          <mxGeometry x="720" y="600" width="120" height="40" as="geometry" />
        </mxCell>
        <mxCell id="Pj3gwDrNvIVw6kRWUvLM-6" value="Режим 2" style="html=1;" vertex="1" parent="1">
          <mxGeometry x="720" y="680" width="120" height="40" as="geometry" />
        </mxCell>
        <mxCell id="Pj3gwDrNvIVw6kRWUvLM-23" style="edgeStyle=orthogonalEdgeStyle;rounded=0;orthogonalLoop=1;jettySize=auto;html=1;exitX=1;exitY=0.5;exitDx=0;exitDy=0;entryX=0;entryY=0.5;entryDx=0;entryDy=0;" edge="1" parent="1" source="Pj3gwDrNvIVw6kRWUvLM-15" target="Pj3gwDrNvIVw6kRWUvLM-16">
          <mxGeometry relative="1" as="geometry" />
        </mxCell>
        <mxCell id="Pj3gwDrNvIVw6kRWUvLM-24" style="edgeStyle=orthogonalEdgeStyle;rounded=0;orthogonalLoop=1;jettySize=auto;html=1;exitX=1;exitY=0.5;exitDx=0;exitDy=0;entryX=0;entryY=0.5;entryDx=0;entryDy=0;" edge="1" parent="1" source="Pj3gwDrNvIVw6kRWUvLM-15" target="Pj3gwDrNvIVw6kRWUvLM-19">
          <mxGeometry relative="1" as="geometry" />
        </mxCell>
        <mxCell id="Pj3gwDrNvIVw6kRWUvLM-25" style="edgeStyle=orthogonalEdgeStyle;rounded=0;orthogonalLoop=1;jettySize=auto;html=1;exitX=1;exitY=0.5;exitDx=0;exitDy=0;entryX=0;entryY=0.5;entryDx=0;entryDy=0;" edge="1" parent="1" source="Pj3gwDrNvIVw6kRWUvLM-15" target="Pj3gwDrNvIVw6kRWUvLM-20">
          <mxGeometry relative="1" as="geometry" />
        </mxCell>
        <mxCell id="Pj3gwDrNvIVw6kRWUvLM-15" value="Фрагмент сборки &lt;br&gt;Редакция 1&lt;br&gt;Part" style="html=1;" vertex="1" parent="1">
          <mxGeometry x="1040" y="440" width="120" height="40" as="geometry" />
        </mxCell>
        <mxCell id="Pj3gwDrNvIVw6kRWUvLM-26" style="edgeStyle=orthogonalEdgeStyle;rounded=0;orthogonalLoop=1;jettySize=auto;html=1;exitX=1;exitY=0.5;exitDx=0;exitDy=0;entryX=0;entryY=0.5;entryDx=0;entryDy=0;" edge="1" parent="1" source="Pj3gwDrNvIVw6kRWUvLM-16" target="Pj3gwDrNvIVw6kRWUvLM-21">
          <mxGeometry relative="1" as="geometry" />
        </mxCell>
        <mxCell id="Pj3gwDrNvIVw6kRWUvLM-16" value="Режим 1&lt;br&gt;Loadcase" style="html=1;" vertex="1" parent="1">
          <mxGeometry x="1200" y="520" width="120" height="40" as="geometry" />
        </mxCell>
        <mxCell id="Pj3gwDrNvIVw6kRWUvLM-19" value="Режим 2&lt;br&gt;Loadcase" style="html=1;" vertex="1" parent="1">
          <mxGeometry x="1200" y="600" width="120" height="40" as="geometry" />
        </mxCell>
        <mxCell id="Pj3gwDrNvIVw6kRWUvLM-20" value="Верификация&lt;br&gt;Loadcase" style="html=1;" vertex="1" parent="1">
          <mxGeometry x="1200" y="680" width="120" height="40" as="geometry" />
        </mxCell>
        <mxCell id="Pj3gwDrNvIVw6kRWUvLM-27" style="edgeStyle=orthogonalEdgeStyle;rounded=0;orthogonalLoop=1;jettySize=auto;html=1;exitX=1;exitY=0.5;exitDx=0;exitDy=0;entryX=0;entryY=0.5;entryDx=0;entryDy=0;" edge="1" parent="1" source="Pj3gwDrNvIVw6kRWUvLM-21" target="Pj3gwDrNvIVw6kRWUvLM-22">
          <mxGeometry relative="1" as="geometry" />
        </mxCell>
        <mxCell id="Pj3gwDrNvIVw6kRWUvLM-21" value="Результаты&lt;br&gt;Simulation" style="html=1;" vertex="1" parent="1">
          <mxGeometry x="1360" y="560" width="120" height="40" as="geometry" />
        </mxCell>
        <mxCell id="Pj3gwDrNvIVw6kRWUvLM-22" value="Мат. модель&lt;br&gt;Submodels" style="html=1;" vertex="1" parent="1">
          <mxGeometry x="1520" y="600" width="120" height="40" as="geometry" />
        </mxCell>
        <mxCell id="Pj3gwDrNvIVw6kRWUvLM-29" style="edgeStyle=orthogonalEdgeStyle;rounded=0;orthogonalLoop=1;jettySize=auto;html=1;exitX=1;exitY=0.5;exitDx=0;exitDy=0;entryX=0;entryY=0.5;entryDx=0;entryDy=0;" edge="1" parent="1" source="Pj3gwDrNvIVw6kRWUvLM-28" target="Pj3gwDrNvIVw6kRWUvLM-15">
          <mxGeometry relative="1" as="geometry" />
        </mxCell>
        <mxCell id="Pj3gwDrNvIVw6kRWUvLM-28" value="Сборка Редакция 1 &lt;br&gt;DMU" style="html=1;" vertex="1" parent="1">
          <mxGeometry x="880" y="400" width="120" height="40" as="geometry" />
        </mxCell>
        <mxCell id="Pj3gwDrNvIVw6kRWUvLM-30" value="Структура ОДК-Сатурн" style="text;html=1;fillColor=none;align=center;verticalAlign=middle;whiteSpace=wrap;rounded=0;strokeWidth=2;fontSize=17;fontStyle=1;fontColor=#3333FF;" vertex="1" parent="1">
          <mxGeometry x="560" y="400" width="210" height="40" as="geometry" />
        </mxCell>
        <mxCell id="Pj3gwDrNvIVw6kRWUvLM-31" value="Структура CML-Bench" style="text;html=1;fillColor=none;align=center;verticalAlign=middle;whiteSpace=wrap;rounded=0;strokeWidth=2;fontSize=17;fontStyle=1;fontColor=#3333FF;" vertex="1" parent="1">
          <mxGeometry x="1280" y="400" width="210" height="40" as="geometry" />
        </mxCell>
      </root>
    </mxGraphModel>
  </diagram>
</mxfile>
